<?xml version="1.0" encoding="UTF-8" standalone="no"?><!DOCTYPE svg PUBLIC "-//W3C//DTD SVG 1.1//EN" "http://www.w3.org/Graphics/SVG/1.1/DTD/svg11.dtd"><svg width="100%" height="100%" viewBox="0 0 959 957" version="1.1" xmlns="http://www.w3.org/2000/svg" xmlns:xlink="http://www.w3.org/1999/xlink" xml:space="preserve" xmlns:serif="http://www.serif.com/" style="fill-rule:evenodd;clip-rule:evenodd;stroke-linecap:round;stroke-linejoin:round;stroke-miterlimit:1.5;"><rect id="Final" x="0" y="0" width="958.765" height="956.536" style="fill:none;"/><clipPath id="_clip1"><rect x="0" y="0" width="958.765" height="956.536"/></clipPath><g clip-path="url(#_clip1)"><clipPath id="_clip2"><rect id="Sky" x="-0" y="0" width="958.765" height="956.536"/></clipPath><g clip-path="url(#_clip2)"><path d="M1217.96,-252.732l-1489.99,0l0,1501.82l1489.99,-0l0,-1501.82Zm-34.54,0l-1455.45,0l0,1453.22l1455.45,-0l-0,-1453.22Zm-704.013,252.155c262.856,0 476.262,213.406 476.262,476.262c-0,262.856 -213.406,476.262 -476.262,476.262c-262.856,-0 -476.262,-213.406 -476.262,-476.262c0,-262.856 213.406,-476.262 476.262,-476.262Z" style="fill:#a9ced7;"/></g><path d="M170.194,837.777c51.971,-18.715 153.049,-28.752 285.495,-33.146c139.847,-4.64 275.816,2.177 345.257,22.24c-84.759,77.673 -197.659,125.076 -321.543,125.076c-117.97,-0 -225.979,-42.985 -309.209,-114.17Z" style="fill:#117d17;"/><g><g id="Trees"><ellipse cx="352.946" cy="409.604" rx="60.634" ry="161.147" style="fill:#117d17;"/><ellipse cx="328.715" cy="722.024" rx="92.083" ry="72.473" style="fill:#117d17;"/><ellipse cx="183.733" cy="733.886" rx="92.083" ry="80.701" style="fill:#0f6113;"/><ellipse cx="315.511" cy="509.53" rx="60.634" ry="99.926" style="fill:#0f6113;"/><ellipse cx="673.397" cy="512.03" rx="70.344" ry="85.903" style="fill:#117d17;"/></g><g id="Sidehus"><path d="M750.226,627.787l0.772,-96.316l-16.583,-0l0.006,96.316l-162.878,-0l0,186.715l178.683,-0l-0,-186.715Z" style="fill:#d5d5d5;"/><path d="M595.395,627.787l139.018,-2.638l15.899,13.841l-155.036,-5.847l0.119,-5.356Z" style="fill:#cacaca;"/><rect x="522.524" y="546.475" width="211.889" height="81.312" style="fill:#983b16;"/></g><g id="Skibet"><path id="Back-wall-type-1" serif:id="Back wall type 1" d="M471.125,433.786l-82.391,-0.085l-22.821,-0.051l0.232,29.981l-28.197,0.006l-0.006,29.849l-32.922,-0.294l-0,321.31l166.105,-0" style="fill:#e7e7e7;"/><path id="Back-wall-type-11" serif:id="Back wall type 1" d="M469.075,433.786l82.392,-0.085l22.821,-0.051l-0.233,29.981l28.198,0.006l0.005,29.849l32.923,-0.294l-0,321.31l-166.106,-0" style="fill:#e7e7e7;"/><rect id="Back-wall-type-2" serif:id="Back wall type 2" x="305.02" y="540.528" width="332.211" height="273.974" style="fill:#e7e7e7;"/><path d="M471.125,353.083c113.228,125.371 184.7,197.694 202.272,201.536l-404.543,-0c64.419,-47.11 132.836,-125.996 202.271,-201.536Z" style="fill:#b84719;"/></g><g id="Tower"><rect id="Tower1" serif:id="Tower" x="361.402" y="294.736" width="219.448" height="519.766" style="fill:#f4f4f4;"/><path d="M361.589,306.155l219.183,-2.231l0,39.336l-219.37,-25.387l0.187,-11.718Z" style="fill:#e7e7e7;"/><g id="Roof-type-1" serif:id="Roof type 1"><rect x="451.133" y="162.341" width="39.699" height="32.717" style="fill:none;stroke:#000;stroke-width:8.33px;"/><path d="M470.982,181.454c56.084,-0 89.137,108.851 128.359,127.566l-256.718,-0c42.336,-20.992 72.275,-127.566 128.359,-127.566Z" style="fill:#b84719;"/><path d="M448.272,187.569c7.079,-3.899 14.623,-6.115 22.71,-6.115c17.504,-0 32.764,10.602 46.665,25.757l-69.375,-19.642Z" style="fill:#983b16;"/><path d="M470.982,103.156c8.495,24.901 19.611,46.743 32.979,65.959l-65.958,-0c14.729,-19.911 25.561,-41.987 32.979,-65.959Z" style="fill:#b84719;"/></g><g id="Cross"><rect x="433.432" y="361.124" width="75.387" height="13.193" style="fill:#433c39;"/><path d="M477.722,460.069l-0,-130.042l-13.193,-0l0,130.042l13.193,0Z" style="fill:#433c39;"/></g><path d="M432.493,814.502l77.265,-0c0.376,-4.875 0.557,-9.826 0.557,-14.805c0,-49.569 -17.56,-89.813 -39.19,-89.813c-21.629,0 -39.189,40.244 -39.189,89.813c-0,4.979 0.181,9.93 0.557,14.805Z" style="fill:#983b16;"/></g></g><ellipse cx="255.437" cy="806.359" rx="57.654" ry="72.473" style="fill:#0f6113;"/><path d="M432.506,814.502c0,-0 -9.553,22.766 -3.902,51.512c5.652,28.746 108.819,57.336 138.233,65.358c29.415,8.022 132.366,-42.116 132.366,-42.116c0,-0 -163.686,-25.388 -178.257,-43.334c-4.817,-5.933 -9.495,-17.129 -11.177,-31.42l-77.263,-0Z" style="fill:#c2bea0;"/><circle cx="479.403" cy="475.685" r="470.721" style="fill:none;stroke:#433c39;stroke-width:12.5px;"/><g><path d="M864.439,410.836c0,0 14.646,-102.898 -31.679,-240.325c-118.758,-145.575 -309.838,-157.345 -311.296,-159.026c-1.73,-1.996 300.145,159.114 342.975,399.351Z" style="fill:#433c39;"/><path d="M799.655,705.218c0,0 83.116,-62.403 147.536,-192.335c18.962,-186.913 -107.83,-330.349 -107.671,-332.569c0.187,-2.635 99.724,324.746 -39.865,524.904Z" style="fill:#433c39;"/><path d="M546.925,865.373c-0,-0 102.898,14.645 240.325,-31.679c145.576,-118.759 157.345,-309.839 159.027,-311.297c1.995,-1.73 -159.115,300.146 -399.352,342.976Z" style="fill:#433c39;"/><path d="M254.981,799.629c-0,0 62.404,83.116 192.336,147.536c186.912,18.962 330.348,-107.83 332.569,-107.672c2.634,0.188 -324.746,99.724 -524.905,-39.864Z" style="fill:#433c39;"/><path d="M93.848,546.728c-0,-0 -14.646,102.898 31.678,240.325c118.759,145.575 309.839,157.345 311.297,159.026c1.73,1.996 -300.146,-159.114 -342.975,-399.351Z" style="fill:#433c39;"/><path d="M158.631,252.346c0,-0 -83.116,62.403 -147.535,192.335c-18.962,186.913 107.829,330.349 107.671,332.569c-0.188,2.635 -99.724,-324.746 39.864,-524.904Z" style="fill:#433c39;"/><path d="M411.362,92.191c-0,0 -102.898,-14.645 -240.325,31.679c-145.576,118.759 -157.345,309.839 -159.027,311.297c-1.996,1.73 159.115,-300.146 399.352,-342.976Z" style="fill:#433c39;"/><path d="M703.306,157.935c-0,-0 -62.404,-83.116 -192.336,-147.536c-186.913,-18.962 -330.349,107.83 -332.569,107.672c-2.634,-0.188 324.746,-99.724 524.905,39.864Z" style="fill:#433c39;"/></g></g></svg>